<svg t="1764062325169" class="icon" viewBox="0 0 1024 1024" version="1.1" xmlns="http://www.w3.org/2000/svg" p-id="2593" width="32" height="32"><path d="M512 85.504c-0.128 0-0.224 0-0.352 0-0.064 0-0.096 0-0.16 0-0.16 0-0.32 0.032-0.512 0.032-235.104 0.544-425.472 191.264-425.472 426.464 0 235.136 190.368 425.888 425.472 426.464 0.16 0 0.32 0.032 0.512 0.032 0.064 0 0.128 0 0.16 0 0.128 0 0.256 0 0.352 0 235.52 0 426.496-190.976 426.496-426.496s-190.976-426.496-426.496-426.496zM529.056 340.736c45.216-1.248 89.216-7.2 131.584-17.536 12.768 50.272 20.704 108.224 21.952 171.744l-153.536 0 0-154.208zM529.056 306.624l0-184.288c45.984 12.736 92.576 74.048 122.272 168.064-39.392 9.504-80.288 15.04-122.272 16.224zM494.944 121.92l0 184.704c-42.336-1.184-83.552-6.816-123.264-16.48 29.952-94.592 76.96-156.128 123.264-168.192zM494.944 340.704l0 154.24-154.592 0c1.248-63.616 9.184-121.632 21.984-171.936 42.688 10.432 87.04 16.48 132.608 17.696zM306.016 494.944l-185.952 0c3.776-87.712 36.448-168.064 88.736-231.712 37.984 20.928 78.272 38.048 120.512 50.848-13.792 54.4-22.048 115.744-23.296 180.864zM306.016 529.056c1.248 65.088 9.504 126.432 23.296 180.832-42.208 12.832-82.528 29.952-120.512 50.88-52.32-63.648-84.992-144-88.736-231.712l185.952 0zM340.352 529.056l154.592 0 0 154.048c-45.568 1.216-89.92 7.296-132.64 17.76-12.768-50.272-20.704-108.256-21.952-171.808zM494.944 717.184l0 184.896c-46.336-12.096-93.408-73.696-123.328-168.416 39.712-9.664 80.96-15.296 123.328-16.48zM529.056 901.696l0-184.48c42.016 1.216 82.912 6.752 122.304 16.256-29.696 94.112-76.288 155.52-122.304 168.224zM529.056 683.104l0-154.048 153.536 0c-1.248 63.456-9.152 121.312-21.888 171.552-42.4-10.336-86.4-16.32-131.616-17.536zM716.928 529.056l187.04 0c-3.776 87.712-36.416 168.032-88.736 231.68-38.304-21.056-78.944-38.304-121.504-51.168 13.76-54.336 21.984-115.552 23.232-180.48zM716.928 494.944c-1.248-65.056-9.504-126.272-23.264-180.672 42.56-12.864 83.168-30.08 121.44-51.136 52.352 63.648 85.056 144.032 88.832 231.808l-187.04 0zM791.616 237.088c-33.952 18.048-69.76 32.992-107.2 44.32-19.936-64.16-47.936-116.544-81.056-150.944 72.64 17.44 137.504 55.008 188.256 106.624zM419.296 130.784c-32.928 34.336-60.8 86.464-80.672 150.304-37.056-11.296-72.576-26.08-106.208-44 50.4-51.264 114.784-88.768 186.88-106.304zM232.288 786.784c33.664-17.952 69.216-32.768 106.304-44.064 19.872 63.904 47.744 116.128 80.704 150.464-72.16-17.568-136.576-55.072-187.008-106.432zM603.36 893.504c33.152-34.4 61.152-86.784 81.12-151.072 37.44 11.36 73.28 26.24 107.232 44.384-50.752 51.648-115.648 89.312-188.352 106.688z" fill="currentColor" p-id="2594"></path></svg>